{"title":"Next BRRip Hindi Kishan H Upload  by RoY StaR","uid":6411764,"size":443007696,"categoryP":"video","categoryS":"movies_dvdr","magnet":"?xt=urn:btih:883ffa8ee91a02a93afe6e051fdb5b60ba5d3045&amp;dn=Next+BRRip+Hindi+Kishan+H+Upload++by+RoY+StaR&amp;tr=udp%3A%2F%2Ftracker.openbittorrent.com%3A80&amp;tr=udp%3A%2F%2Fopen.demonii.com%3A1337&amp;tr=udp%3A%2F%2Ftracker.coppersurfer.tk%3A6969&amp;tr=udp%3A%2F%2Fexodus.desync.com%3A6969","seeders":0,"leechers":1,"uploader":"royhere","files":20,"time":1306010427,"description":"Complete name                    : D:\\TOORENT FOR UPLOAD\\Next BRRip Hindi Kishan H Upload  by RoY StaR\\Next Part 1.mkv\nFormat                           : Matroska\nFile size                        : 422 MiB\nDuration                         : 47mn 56s\nOverall bit rate                 : 638 Kbps\nEncoded date                     : UTC 2010-06-08 03:34:03\nWriting application              : mkvmerge v2.4.1 ('Use Me') built on Dec  5 2008 15:43:32\nWriting library                  : libebml v0.7.7 + libmatroska v0.8.1\n\nVideo\nID                               : 1\nFormat                           : AVC\nFormat/Info                      : Advanced Video Codec\nFormat profile                   : &lt;a class=&quot;__cf_email__&quot; href=&quot;/cdn-cgi/l/email-protection&quot; data-cfemail=&quot;9fd7f6f8f7dfd3abb1af&quot;&gt;[email&amp;#160;protected]&lt;/a&gt;&lt;script cf-hash='f9e31' type=&quot;text/javascript&quot;&gt;\n/* &lt;![CDATA[ */!function(){try{var t=&quot;currentScript&quot;in document?document.currentScript:function(){for(var t=document.getElementsByTagName(&quot;script&quot;),e=t.length;e--;)if(t[e].getAttribute(&quot;cf-hash&quot;))return t[e]}();if(t&amp;&amp;t.previousSibling){var e,r,n,i,c=t.previousSibling,a=c.getAttribute(&quot;data-cfemail&quot;);if(a){for(e=&quot;&quot;,r=parseInt(a.substr(0,2),16),n=2;a.length-n;n+=2)i=parseInt(a.substr(n,2),16)^r,e+=String.fromCharCode(i);e=document.createTextNode(e),c.parentNode.replaceChild(e,c)}}}catch(u){}}();/* ]]&gt; */&lt;/script&gt;\nFormat settings, CABAC           : Yes\nFormat settings, ReFrames        : 8 frames\nCodec ID                         : V_MPEG4/ISO/AVC\nDuration                         : 47mn 56s\nBit rate                         : 562 Kbps\nWidth                            : 1 280 pixels\nHeight                           : 528 pixels\nDisplay aspect ratio             : 2.40:1\nFrame rate                       : 23.976 fps\nColor space                      : YUV\nChroma subsampling               : 4:2:0\nBit depth                        : 8 bits\nScan type                        : Progressive\nBits/(Pixel*Frame)               : 0.035\nStream size                      : 193 MiB (88%)\n\nAudio\nID                               : 2\nFormat                           : MPEG Audio\nFormat version                   : Version 1\nFormat profile                   : Layer 3\nMode                             : Joint stereo\nMode extension                   : MS Stereo\nCodec ID                         : A_MPEG/L3\nCodec ID/Hint                    : MP3\nDuration                         : 47mn 56s\nBit rate mode                    : Constant\nBit rate                         : 64.0 Kbps\nChannel(s)                       : 2 channels\nSampling rate                    : 44.1 KHz\nCompression mode                 : Lossy\nDelay relative to video          : 700ms\nStream size                      : 21.9 MiB (10%)\n","torrent":{"xt":"urn:btih:883ffa8ee91a02a93afe6e051fdb5b60ba5d3045","amp;dn":"Next+BRRip+Hindi+Kishan+H+Upload++by+RoY+StaR","amp;tr":["udp%3A%2F%2Ftracker.openbittorrent.com%3A80","udp%3A%2F%2Fopen.demonii.com%3A1337","udp%3A%2F%2Ftracker.coppersurfer.tk%3A6969","udp%3A%2F%2Fexodus.desync.com%3A6969"],"infoHash":"883ffa8ee91a02a93afe6e051fdb5b60ba5d3045","infoHashBuffer":{"type":"Buffer","data":[136,63,250,142,233,26,2,169,58,254,110,5,31,219,91,96,186,93,48,69]},"announce":[],"urlList":[]}}